<?xml version="1.0" encoding="iso-8859-1"?>
<!-- Generator: Adobe Illustrator 19.0.0, SVG Export Plug-In . SVG Version: 6.00 Build 0)  -->
<svg version="1.1" id="Layer_1" xmlns="http://www.w3.org/2000/svg" xmlns:xlink="http://www.w3.org/1999/xlink" x="0px" y="0px"
	 viewBox="0 0 512 512" style="enable-background:new 0 0 512 512;" xml:space="preserve">
<rect x="67.611" y="5.365" style="fill:#3C7715;" width="323.539" height="152.186"/>
<rect x="94.576" y="28.638" style="fill:#4C8C23;" width="323.539" height="152.186"/>
<rect x="121.175" y="54.086" style="fill:#579E2E;" width="323.874" height="153.81"/>
<path style="fill:#75BF4D;" d="M445.053,92.272v115.624H183.574v-15.495c0-55.296,44.822-100.128,100.118-100.128L445.053,92.272
	L445.053,92.272z"/>
<path style="fill:#AEB9CC;" d="M344.177,130.991c0,33.727-27.338,61.065-61.065,61.065c-7.59,0-14.865-1.388-21.569-3.928
	c-23.075-8.712-39.486-31.01-39.486-57.137c0-33.717,27.338-61.056,61.056-61.056c19.344,0,36.582,8.988,47.756,23.016
	C339.205,103.387,344.177,116.608,344.177,130.991z"/>
<path style="fill:#C8D0E2;" d="M344.177,130.991c0,33.727-27.338,61.065-61.065,61.065c-7.59,0-14.865-1.388-21.569-3.928
	c-8.338-10.435-13.31-23.666-13.31-38.049c0-33.717,27.338-61.056,61.056-61.056c7.6,0,14.865,1.388,21.579,3.928
	C339.205,103.387,344.177,116.608,344.177,130.991z"/>
<path style="fill:#FBCB99;" d="M500.93,306.331l-115.23,115.22H194.334l-15.013,15.013l11.823,11.833l-1.733,1.742l-54.913,54.903
	l-123.43-123.43l54.913-54.903l1.733-1.742l12,12l76.236-76.236h180.774l0.059,2.392c0.079,2.904-0.098,5.877-0.532,8.84
	l-0.384,2.628l-1.742,12.03l33.068-33.068c7.994-7.994,18.714-12.571,29.405-12.571c7.452,0,14.422,2.215,20.073,6.33l-3.593,3.603
	l9.864,1.309c9.382,1.26,17.996,5.326,24.916,11.774l1.536,1.427l2.097-0.118c0.866-0.049,1.742-0.079,2.609-0.079
	c12.168,0,23.597,4.725,32.172,13.3l1.733,1.742l-11.37,11.37l6.999,2.747c0.797,0.315,1.585,0.65,2.363,1.004
	c4.903,2.245,9.333,5.326,13.192,9.195L500.93,306.331z"/>
<polygon style="fill:#213847;" points="191.144,448.397 189.411,450.139 162.949,476.591 134.499,505.042 45.436,415.979 
	11.069,381.612 65.981,326.709 67.714,324.967 79.714,336.967 179.321,436.564 "/>
<circle style="fill:#563939;" cx="65.337" cy="381.7" r="12.662"/>
<path style="fill:#324A5E;" d="M162.949,476.591l-28.451,28.451l-72.77-72.77l-16.293-16.293l3.514-3.514
	c13.763-13.772,36.09-13.772,49.852-0.01L162.949,476.591z"/>
<path style="fill:#42647A;" d="M150.417,489.123l-15.919,15.919l-72.77-72.77c12.926-5.71,28.579-3.259,39.161,7.324
	L150.417,489.123z"/>
<g>
	<path style="fill:#EAA96E;" d="M336.252,271.964l-0.384,2.628l-2.018,4.204H178.802c-9.955,0-19.822,1.868-29.088,5.505
		l-28.534,11.201l34.771-34.771h180.774l0.059,2.392C336.862,266.028,336.685,269.001,336.252,271.964z"/>
	<path style="fill:#EAA96E;" d="M500.93,306.331l-115.23,115.22H194.334l-15.013,15.013l11.823,11.833l-1.733,1.742l-123.43-123.43
		l1.733-1.742l12,12l22.288-22.288l54.838,54.838c17.275,17.275,40.704,26.98,65.134,26.98h119.623
		c23.378,0,45.88-8.889,62.948-24.864l81.45-76.24c4.903,2.245,9.333,5.326,13.192,9.195L500.93,306.331z"/>
	<path style="fill:#EAA96E;" d="M488.005,280.273l-11.37,11.37c0,0-25.212-1.24-55.1,26.659
		c-29.878,27.909-42.282,47.933-42.282,47.933s-79.219,3.662-98.1-3.387c-18.892-7.049-58.919-52.717-58.919-52.717l88.404-1.693
		l23.489-21.815l33.068-33.068c7.994-7.994,18.714-12.571,29.405-12.571c7.452,0,14.422,2.215,20.073,6.33l-3.593,3.603l9.864,1.309
		c9.382,1.26,17.996,5.326,24.916,11.774l1.536,1.427l2.097-0.118c0.866-0.049,1.742-0.079,2.609-0.079
		c12.168,0,23.597,4.725,32.172,13.3L488.005,280.273z"/>
</g>
<g>
	<path style="fill:#FBCB99;" d="M445.05,265.385c0,0-27.898-1.425-41.607,7.713c-16.128,10.752-60.201,47.395-60.201,47.395
		s54.897-64.326,61.381-66.24C411.108,252.34,445.05,265.385,445.05,265.385z"/>
	<path style="fill:#FBCB99;" d="M477.073,287.278c0,0-15.398-6.817-30.62-2.025c-15.224,4.792-77.893,60.558-77.893,60.558
		s49.595-69.226,75.248-74.02c25.654-4.792,38.903,6.202,38.903,6.202L477.073,287.278z"/>
</g>
<path d="M502.669,301.105c-4.993-4.993-10.854-8.797-17.236-11.298l9.537-9.537l-5.221-5.221
	c-10.562-10.562-24.681-15.441-38.536-14.655c-7.897-7.356-17.593-11.705-27.623-13.044l0.31-0.31
	c-15.757-15.757-42.757-14.397-60.187,3.033l-22.592,22.592c0.46-3.168,0.668-6.397,0.582-9.668l-0.188-7.189H153.911
	l-74.194,74.194l-11.999-11.999L4.11,381.612L134.498,512l63.608-63.608l-11.825-11.825l10.095-10.095h191.369L507.89,306.326
	L502.669,301.105z M368.56,345.811l60.32-60.32c12.112-12.112,30.844-13.673,44.663-4.677l-5.546,5.546
	c-0.329-0.006-0.656-0.024-0.985-0.024c-13.469,0-26.132,5.245-35.657,14.77l-55.994,55.994h-75.356
	c-14.585,0-28.297-5.68-38.61-15.993l-20.543-20.543h44.779c0.958,0,1.912-0.024,2.861-0.071h54.75l48.412-48.412
	c11-11,27.454-13.288,40.733-6.882c-5.046,2.401-9.777,5.678-13.949,9.85l-55.994,55.994h-32.291v14.767L368.56,345.811
	L368.56,345.811z M332.785,297.768l3.628,0.492l37.745-37.746c6.642-6.642,15.213-9.939,23.21-9.71
	c-5.875,2.455-11.38,6.06-16.155,10.835l-44.086,44.087h-13.491c0.741-0.684,1.469-1.388,2.179-2.117
	c1.871-1.922,3.578-3.956,5.136-6.078C332.092,297.675,332.769,297.766,332.785,297.768z M177.223,448.392l-42.725,42.725
	L24.993,381.612l42.725-42.725l1.557,1.557l-0.039,0.039l106.564,106.564l0.039-0.039L177.223,448.392z M381.627,411.706H190.259
	l-14.419,14.419l-85.681-85.681l69.869-69.869H326.52c-1.251,8.528-5.135,16.42-11.283,22.732
	c-7.294,7.489-16.895,11.843-27.244,12.42h-50.366v0.071h-32.423l45.752,45.751c13.102,13.103,30.522,20.318,49.052,20.318h81.472
	l60.32-60.32c6.735-6.735,15.69-10.444,25.214-10.444c7.014,0,13.718,2.011,19.456,5.762L381.627,411.706z"/>
<rect x="303.987" y="331.041" width="13.298" height="14.767"/>
<path d="M64.975,360.924c-5.459,0-10.592,2.126-14.452,5.986s-5.986,8.993-5.986,14.452c0,5.459,2.125,10.591,5.985,14.452
	c3.86,3.86,8.993,5.986,14.452,5.986c5.459,0,10.592-2.126,14.452-5.986l0,0c7.968-7.969,7.968-20.935,0-28.902
	C75.567,363.05,70.434,360.924,64.975,360.924z M68.986,385.371c-1.071,1.071-2.496,1.662-4.01,1.662
	c-1.515,0-2.939-0.591-4.01-1.662c-1.071-1.071-1.661-2.496-1.661-4.01c0-1.515,0.59-2.939,1.662-4.01
	c1.071-1.071,2.495-1.662,4.01-1.662c1.515,0,2.939,0.591,4.01,1.662C71.196,379.563,71.196,383.16,68.986,385.371z"/>
<path d="M283.679,198.717c36.818,0,66.772-29.954,66.772-66.773s-29.954-66.773-66.772-66.773s-66.773,29.954-66.773,66.773
	S246.861,198.717,283.679,198.717z M283.679,79.938c28.676,0,52.005,23.329,52.005,52.006s-23.329,52.006-52.005,52.006
	c-28.676,0-52.006-23.329-52.006-52.006S255.003,79.938,283.679,79.938z"/>
<path d="M277.651,169.186c0.002,0.222,0.113,0.333,0.334,0.333h9.663c0.297,0,0.445-0.148,0.445-0.444v-10.442
	c6.295-2.096,10.909-4.999,13.844-8.709c2.398-3.031,3.595-6.016,3.595-8.954c0-5.715-2.666-9.861-7.998-12.441
	c-2.296-1.11-4.758-1.944-7.387-2.5c-2.628-0.555-5.092-1.11-7.387-1.667c-2.296-0.555-4.203-1.277-5.721-2.166
	c-1.518-0.889-2.277-2.296-2.277-4.221c0-1.925,0.759-3.221,2.277-3.888c1.518-0.666,3.35-1,5.498-1
	c7.316,0,13.352,2.296,18.107,6.887V107.2c-1.776-1.962-6.108-3.406-12.997-4.332V90.095c0-0.222-0.148-0.333-0.444-0.333h-9.663
	c-0.296,0-0.445,0.148-0.445,0.444v12.553c-2.295,0.852-4.61,2.101-6.942,3.749c-2.333,1.648-4,3.452-4.999,5.415
	c-1,1.962-1.499,4.406-1.499,7.331s0.76,5.424,2.277,7.499c2.689,3.673,7.076,6.191,13.163,7.554l7.443,1.667
	c2.28,0.511,4.184,1.157,5.71,1.937c1.526,0.782,2.288,1.95,2.288,3.506c0,2.773-1.763,4.699-5.291,5.777
	c-1.454,0.444-3.689,0.666-6.705,0.666c-4.22,0-8.035-1-11.441-3c-3.406-1.999-5.999-4.777-7.775-8.331v14.996
	c4.591,2.792,9.331,4.903,14.218,6.332L277.651,169.186z"/>
<path d="M89.157,191.206h25.97v24.677h337.105V48.006h-25.971V23.328h-29.389V0H59.767v167.877h29.39V191.206z M437.465,201.116
	H129.894V62.772h307.571V201.116z M411.494,48.006H115.127v128.433h-11.203V38.095h307.57V48.006z M74.534,153.11V14.767h307.571
	v8.562H89.157V153.11L74.534,153.11L74.534,153.11z"/>
<rect x="89.161" y="238.138" width="14.767" height="16.119"/>
<rect x="276.295" y="453.388" width="14.767" height="16.119"/>
<rect x="450.533" y="398.879" width="14.767" height="16.119"/>
<rect x="427.349" y="477.566" width="14.767" height="16.12"/>
<rect x="23.666" y="86.614" width="14.767" height="16.12"/>
<rect x="11.64" y="212.434" width="14.767" height="16.12"/>
<g>
</g>
<g>
</g>
<g>
</g>
<g>
</g>
<g>
</g>
<g>
</g>
<g>
</g>
<g>
</g>
<g>
</g>
<g>
</g>
<g>
</g>
<g>
</g>
<g>
</g>
<g>
</g>
<g>
</g>
</svg>
