<svg id="Layer_5" enable-background="new 0 0 64 64" height="512" viewBox="0 0 64 64" width="512" xmlns="http://www.w3.org/2000/svg"><g><g><g><path d="m36 24c-.87-.66-1.63-1.45-2.25-2.35l-3.75 2.82v.01l-3.61 2.72c.38.5.61 1.12.61 1.8 0 1.66-1.34 3-3 3s-3-1.34-3-3c0-1.01.5-1.91 1.27-2.45l-4.27-6.05-.23-.33v-.01c-1.63 1.16-3.62 1.84-5.77 1.84-2.25 0-4.33-.75-6-2v42h6 6 6 6 8c-.55 0-1-.45-1-1v-3c-4.11-1.9-7-5.18-7-8.88v-.12c0-4.1 2.47-7.62 6-9.16 1.22-.54 2.58-.84 4-.84h2v-13c-2.25 0-4.33-.75-6-2z" fill="#ccd1d9"/></g><g><path d="m26.39 27.2c.38.5.61 1.12.61 1.8 0 1.66-1.34 3-3 3s-3-1.34-3-3c0-1.01.5-1.91 1.27-2.45.49-.34 1.08-.55 1.73-.55.98 0 1.85.47 2.39 1.2z" fill="#ff826e"/></g><g><path d="m12 2c5.52 0 10 4.48 10 10 0 3.37-1.67 6.35-4.23 8.16-1.63 1.16-3.62 1.84-5.77 1.84-2.25 0-4.33-.75-6-2-2.43-1.83-4-4.73-4-8 0-5.52 4.48-10 10-10z" fill="#fcd770"/></g><g><path d="m42 6c5.52 0 10 4.48 10 10s-4.48 10-10 10c-2.25 0-4.33-.75-6-2-.87-.66-1.63-1.45-2.25-2.35-1.1-1.61-1.75-3.55-1.75-5.65 0-5.52 4.48-10 10-10z" fill="#fcd770"/></g><g><path d="m25.41 49.59c.37.36.59.86.59 1.41s-.22 1.05-.59 1.41c-.36.37-.86.59-1.41.59s-1.05-.22-1.41-.59c-.37-.36-.59-.86-.59-1.41s.22-1.05.59-1.41c.36-.37.86-.59 1.41-.59s1.05.22 1.41.59z" fill="#cf9e76"/></g><g><path d="m62 47v4c0 1.1-.9 2-2 2h-1c-1.14 2.08-3.38 3.79-6 5v3c0 .55-.45 1-1 1h-2c-.55 0-1-.45-1-1v-2h-8v2c0 .55-.45 1-1 1h-1-1c-.55 0-1-.45-1-1v-3c-4.11-1.9-7-5.18-7-8.88v-.12c0-4.1 2.47-7.62 6-9.16 1.22-.54 2.58-.84 4-.84h2 8l.05-.15c.29-.85.83-1.56 1.52-2.06s1.53-.79 2.43-.79l1 5.07c1.9 1.14 3.09 2.27 4 3.93h1c1.1 0 2 .9 2 2z" fill="#dfb28b"/></g></g><g><path d="m60 44h-.425c-.872-1.412-1.986-2.484-3.679-3.551l-1.074-5.449h-.822c-2.034 0-3.853 1.185-4.688 3h-6.312v-11.051c5.598-.507 10-5.221 10-10.949 0-6.065-4.935-11-11-11s-11 4.935-11 11c0 1.96.521 3.798 1.423 5.393l-5.95 4.488c-.682-.543-1.535-.881-2.473-.881-.498 0-.97.103-1.41.269l-3.463-4.906c2.366-2.019 3.873-5.016 3.873-8.363 0-6.065-4.935-11-11-11s-11 4.935-11 11c0 3.408 1.559 6.459 4 8.479v42.521h33 1 1c1.103 0 2-.897 2-2v-1h6v1c0 1.103.897 2 2 2h2c1.103 0 2-.897 2-2v-2.371c1.895-.947 4.173-2.449 5.569-4.629h.431c1.654 0 3-1.346 3-3v-4c0-1.654-1.346-3-3-3zm-19.999-6c-1.041 0-2.046.155-3.001.427v-12.641c1.221.626 2.57 1.034 4 1.164v11.05zm1.999-31c4.962 0 9 4.038 9 9s-4.038 9-9 9-9-4.038-9-9 4.038-9 9-9zm-7 17.479v14.736c-1.6.821-2.973 2.019-4 3.481v-17.724l2.559-1.93c.436.521.917 1.003 1.441 1.437zm-12 34.523v1.998h-4v-37.349l1.961 2.779c-.591.697-.961 1.587-.961 2.57 0 1.858 1.28 3.411 3 3.858v15.326c-1.161.414-2 1.514-2 2.816v6h2v-3.171c.313.11.649.171 1 .171 1.654 0 3-1.346 3-3 0-.351-.061-.687-.171-1h2.171v11h-4v-1.998zm-10-36.053c1.43-.13 2.779-.537 4-1.164v39.215h-4zm15 6.051c0-.543-.111-1.06-.308-1.533l1.308-.986v21.519h-4v-15.142c1.72-.447 3-2 3-3.858zm-3 22c0 .551-.449 1-1 1s-1-.449-1-1 .449-1 1-1 1 .449 1 1zm1-22c0 1.103-.897 2-2 2s-2-.897-2-2 .897-2 2-2 2 .897 2 2zm-23-17c0-4.962 4.038-9 9-9s9 4.038 9 9-4.038 9-9 9-9-4.038-9-9zm4 9.786c1.221.626 2.57 1.034 4 1.164v38.05h-4zm24 39.214v-6.355c1.195 1.55 2.888 2.917 5 3.983v2.372zm30-10c0 .551-.449 1-1 1h-1.593l-.285.52c-.95 1.735-2.918 3.359-5.542 4.572l-.58.268v3.64h-2v-3h-10v3h-1-1v-3.64l-.581-.268c-3.959-1.83-6.419-4.884-6.419-7.971v-.12c0-4.963 4.038-9.001 9.001-9.001h10.72l.279-.838c.344-1.032 1.181-1.794 2.198-2.06l.907 4.598.38.229c1.792 1.075 2.846 2.104 3.637 3.551l.285.52h1.593c.551 0 1 .449 1 1z"/><path d="m33 49.001h2c0-2.757 2.244-5.001 5.001-5.001h1.999v-2h-1.999c-3.86 0-7.001 3.141-7.001 7.001z"/><path d="m11 19h2v-2c1.654 0 3-1.346 3-3s-1.346-3-3-3h-2c-.551 0-1-.449-1-1s.449-1 1-1h3v1h2v-3h-3v-2h-2v2c-1.654 0-3 1.346-3 3s1.346 3 3 3h2c.551 0 1 .449 1 1s-.449 1-1 1h-3v-1h-2v3h3z"/><path d="m41 23h2v-2c1.654 0 3-1.346 3-3s-1.346-3-3-3h-2c-.551 0-1-.449-1-1s.449-1 1-1h3v1h2v-3h-3v-2h-2v2c-1.654 0-3 1.346-3 3s1.346 3 3 3h2c.551 0 1 .449 1 1s-.449 1-1 1h-3v-1h-2v3h3z"/><circle cx="53" cy="45" r="1"/></g></g></svg>